<?xml version="1.0" encoding="iso-8859-1"?>
<!-- Generator: Adobe Illustrator 19.0.0, SVG Export Plug-In . SVG Version: 6.00 Build 0)  -->
<svg version="1.1" id="Layer_1" xmlns="http://www.w3.org/2000/svg" xmlns:xlink="http://www.w3.org/1999/xlink" x="0px" y="0px"
	 viewBox="0 0 496 496" style="enable-background:new 0 0 496 496;" xml:space="preserve">
<path style="fill:#3CC676;" d="M483.2,324H472v-36.8c0-18.4-17.6-35.2-35.2-35.2H33.6C15.2,252,0,268.8,0,287.2v152
	C0,457.6,15.2,476,33.6,476h403.2c18.4,0,35.2-18.4,35.2-36.8V404h11.2c7.2,0,12.8-4,12.8-11.2v-60C496,326.4,490.4,324,483.2,324z"
	/>
<path style="fill:#0AA06E;" d="M436.8,476c18.4,0,35.2-18.4,35.2-36.8V404h11.2c7.2,0,12.8-4,12.8-11.2v-60c0-7.2-5.6-8.8-12.8-8.8
	H472v-36.8c0-18.4-17.6-35.2-35.2-35.2H33.6C15.2,252,0,268.8,0,287.2"/>
<g>
	<rect x="56" y="292" style="fill:#E3FFEE;" width="40" height="144"/>
	<rect x="120" y="292" style="fill:#E3FFEE;" width="40" height="144"/>
	<rect x="184" y="292" style="fill:#E3FFEE;" width="40" height="144"/>
	<rect x="248" y="292" style="fill:#E3FFEE;" width="40" height="144"/>
	<rect x="312" y="292" style="fill:#E3FFEE;" width="40" height="144"/>
	<rect x="376" y="292" style="fill:#E3FFEE;" width="40" height="144"/>
</g>
<g>
	<rect x="376" y="364" style="fill:#C3E5CF;" width="40" height="72"/>
	<rect x="312" y="364" style="fill:#C3E5CF;" width="40" height="72"/>
	<rect x="248" y="364" style="fill:#C3E5CF;" width="40" height="72"/>
	<rect x="184" y="364" style="fill:#C3E5CF;" width="40" height="72"/>
	<rect x="120" y="364" style="fill:#C3E5CF;" width="40" height="72"/>
	<rect x="56" y="364" style="fill:#C3E5CF;" width="40" height="72"/>
</g>
<path style="fill:#F15249;" d="M483.2,84H472V48.8c0-18.4-17.6-28.8-35.2-28.8H33.6C15.2,20,0,30.4,0,48.8v152
	C0,219.2,15.2,236,33.6,236h403.2c18.4,0,35.2-16.8,35.2-35.2V164h11.2c7.2,0,12.8-2.4,12.8-8.8v-60C496,88,490.4,84,483.2,84z"/>
<path style="fill:#C93131;" d="M436.8,236c18.4,0,35.2-16.8,35.2-35.2V164h11.2c7.2,0,12.8-2.4,12.8-8.8v-60
	c0-7.2-5.6-11.2-12.8-11.2H472V48.8c0-18.4-17.6-28.8-35.2-28.8H33.6C15.2,20,0,30.4,0,48.8"/>
<g>
	<path style="fill:#FFFFFF;" d="M272,100h65.6c4.8,0,6.4-4,6.4-8.8v-6.4c0-4.8-1.6-8.8-6.4-8.8H272V100z"/>
	<path style="fill:#FFFFFF;" d="M272,172h65.6c4.8,0,6.4-4,6.4-8.8V156c0-4.8-1.6-8-6.4-8H272V172z"/>
	<path style="fill:#FFFFFF;" d="M272,172h65.6c4.8,0,6.4-4,6.4-8.8V156"/>
	<path style="fill:#FFFFFF;" d="M192.8,96c-1.6-2.4-4.8-4-7.2-4c-4.8,0-8.8,4-8.8,8.8V148c0,4.8,3.2,8.8,8,8.8c3.2,0,7.2-1.6,8.8-4
		c11.2,27.2,39.2,46.4,71.2,46.4V49.6C232,49.6,204,68.8,192.8,96z M224,139.2c0,2.4-1.6,4.8-4,4.8s-4-1.6-4-4.8v-28.8
		c0-2.4,1.6-4.8,4-4.8s4,2.4,4,4.8V139.2z M240,139.2c0,2.4-1.6,4.8-4,4.8s-4-2.4-4-4.8v-28.8c0-2.4,1.6-4.8,4-4.8s4,2.4,4,4.8
		V139.2z"/>
	<rect y="116" style="fill:#FFFFFF;" width="160" height="24"/>
</g>
<g>
</g>
<g>
</g>
<g>
</g>
<g>
</g>
<g>
</g>
<g>
</g>
<g>
</g>
<g>
</g>
<g>
</g>
<g>
</g>
<g>
</g>
<g>
</g>
<g>
</g>
<g>
</g>
<g>
</g>
</svg>
