<?xml version="1.0" encoding="iso-8859-1"?>
<!-- Generator: Adobe Illustrator 19.0.0, SVG Export Plug-In . SVG Version: 6.00 Build 0)  -->
<svg version="1.1" id="Layer_1" xmlns="http://www.w3.org/2000/svg" xmlns:xlink="http://www.w3.org/1999/xlink" x="0px" y="0px"
	 viewBox="0 0 496 496" style="enable-background:new 0 0 496 496;" xml:space="preserve">
<g>
	<path style="fill:#424C4B;" d="M24,146.4v206.4c0,16.8,8,32,24,40v16.8v32l27.2-14.4l56-28.8h262.4c25.6,0,45.6-20,45.6-45.6V146.4
		c0-25.6-20-44-45.6-44H68.8C43.2,102.4,24,121.6,24,146.4z"/>
	<path style="fill:#424C4B;" d="M440.8,46.4H55.2C24.8,46.4,0,68.8,0,99.2V344c0,29.6,24.8,54.4,55.2,54.4h311.2l70.4,33.6
		l35.2,16.8v-37.6v-20c16-9.6,24-27.2,24-47.2V99.2C496,68.8,471.2,46.4,440.8,46.4z M472,343.2c0,16-8,29.6-24,31.2v36.8l-76-36.8
		H55.2c-17.6,0-31.2-13.6-31.2-31.2v-244c0-17.6,13.6-28.8,31.2-28.8h386.4c17.6,0,31.2,11.2,31.2,28.8v244H472z"/>
</g>
<path d="M472,391.2C472,391.2,472,390.4,472,391.2l-24-16V412l0,0l24,37.6V412V391.2z"/>
<g>
	<circle style="fill:#CECECE;" cx="152.8" cy="261.6" r="15.2"/>
	<circle style="fill:#CECECE;" cx="248" cy="261.6" r="15.2"/>
	<circle style="fill:#CECECE;" cx="343.2" cy="261.6" r="15.2"/>
</g>
<g>
</g>
<g>
</g>
<g>
</g>
<g>
</g>
<g>
</g>
<g>
</g>
<g>
</g>
<g>
</g>
<g>
</g>
<g>
</g>
<g>
</g>
<g>
</g>
<g>
</g>
<g>
</g>
<g>
</g>
</svg>
