<?xml version="1.0" encoding="iso-8859-1"?>
<!-- Generator: Adobe Illustrator 19.0.0, SVG Export Plug-In . SVG Version: 6.00 Build 0)  -->
<svg version="1.1" id="Layer_1" xmlns="http://www.w3.org/2000/svg" xmlns:xlink="http://www.w3.org/1999/xlink" x="0px" y="0px"
	 viewBox="0 0 496.005 496.005" style="enable-background:new 0 0 496.005 496.005;" xml:space="preserve">
<path style="fill:#FFB000;" d="M496.005,356.002c0,18.4-15.2,36.8-33.6,36.8h-444c-19.2,0-18.4-18.4-18.4-36.8v-262.4
	c0-19.2,15.2-36.8,33.6-36.8h428.8c18.4,0,33.6,17.6,33.6,36.8V356.002z"/>
<g>
	<path style="fill:#FF9D00;" d="M462.405,56.802c18.4,0,33.6,17.6,33.6,36.8v263.2c0,18.4-15.2,36.8-33.6,36.8h-444
		c-19.2-0.8-18.4-17.6-18.4-36"/>
	<polygon style="fill:#FF9D00;" points="496.005,276.802 496.005,437.602 308.005,313.602 	"/>
</g>
<path style="fill:#FF6D00;" d="M496.005,439.202c0-1.6,0-4,0-5.6v-2.4c0-23.2-19.2-38.4-42.4-38.4h-30.4L496.005,439.202z"/>
<g>
	<path style="fill:#FF9100;" d="M364.805,176.802h-233.6c-7.2,0-12.8-4.8-12.8-12s5.6-12,12.8-12h233.6c7.2,0,12.8,4.8,12.8,12
		C377.605,172.002,372.005,176.802,364.805,176.802z"/>
	<path style="fill:#FF9100;" d="M364.805,248.802h-233.6c-7.2,0-12.8-4.8-12.8-12s5.6-12,12.8-12h233.6c7.2,0,12.8,4.8,12.8,12
		C377.605,244.002,372.005,248.802,364.805,248.802z"/>
	<path style="fill:#FF9100;" d="M257.605,320.802h-126.4c-7.2,0-12.8-4.8-12.8-12s5.6-12,12.8-12h126.4c7.2,0,12.8,4.8,12.8,12
		S264.805,320.802,257.605,320.802z"/>
</g>
<g>
	<path style="fill:#F8FFFF;" d="M364.805,168.802h-233.6c-7.2,0-12.8-4.8-12.8-12s5.6-12,12.8-12h233.6c7.2,0,12.8,4.8,12.8,12
		C377.605,164.002,372.005,168.802,364.805,168.802z"/>
	<path style="fill:#F8FFFF;" d="M364.805,240.802h-233.6c-7.2,0-12.8-4.8-12.8-12s5.6-12,12.8-12h233.6c7.2,0,12.8,4.8,12.8,12
		C377.605,236.002,372.005,240.802,364.805,240.802z"/>
	<path style="fill:#F8FFFF;" d="M257.605,312.802h-126.4c-7.2,0-12.8-4.8-12.8-12s5.6-12,12.8-12h126.4c7.2,0,12.8,4.8,12.8,12
		S264.805,312.802,257.605,312.802z"/>
</g>
<g>
</g>
<g>
</g>
<g>
</g>
<g>
</g>
<g>
</g>
<g>
</g>
<g>
</g>
<g>
</g>
<g>
</g>
<g>
</g>
<g>
</g>
<g>
</g>
<g>
</g>
<g>
</g>
<g>
</g>
</svg>
