<?xml version="1.0" encoding="iso-8859-1"?>
<!-- Generator: Adobe Illustrator 19.0.0, SVG Export Plug-In . SVG Version: 6.00 Build 0)  -->
<svg version="1.1" id="Layer_1" xmlns="http://www.w3.org/2000/svg" xmlns:xlink="http://www.w3.org/1999/xlink" x="0px" y="0px"
	 viewBox="0 0 496 496" style="enable-background:new 0 0 496 496;" xml:space="preserve">
<path style="fill:#424C4B;" d="M440.8,46.4H55.2C24.8,46.4,0,68.8,0,99.2V344c0,29.6,24.8,54.4,55.2,54.4h311.2l70.4,33.6l35.2,16.8
	v-37.6v-20c16-9.6,24-27.2,24-47.2V99.2C496,68.8,471.2,46.4,440.8,46.4z M472,343.2c0,16-8,29.6-24,31.2v36.8l-76-36.8H55.2
	c-17.6,0-31.2-13.6-31.2-31.2v-244c0-17.6,13.6-28.8,31.2-28.8h386.4c17.6,0,31.2,11.2,31.2,28.8v244H472z"/>
<path d="M472,391.2C472,391.2,472,390.4,472,391.2l-24-16V412l0,0l24,37.6V412V391.2z"/>
<path d="M365.6,398.4l5.6-24h-316c-14.4,0-26.4-10.4-30.4-24c4.8,20,16.8,40,34.4,48H365.6z"/>
<g>
	<circle style="fill:#535958;" cx="152.8" cy="261.6" r="15.2"/>
	<circle style="fill:#535958;" cx="248" cy="261.6" r="15.2"/>
	<circle style="fill:#535958;" cx="343.2" cy="261.6" r="15.2"/>
</g>
<g>
</g>
<g>
</g>
<g>
</g>
<g>
</g>
<g>
</g>
<g>
</g>
<g>
</g>
<g>
</g>
<g>
</g>
<g>
</g>
<g>
</g>
<g>
</g>
<g>
</g>
<g>
</g>
<g>
</g>
</svg>
