<?xml version="1.0" encoding="iso-8859-1"?>
<!-- Generator: Adobe Illustrator 19.0.0, SVG Export Plug-In . SVG Version: 6.00 Build 0)  -->
<svg version="1.1" id="Layer_1" xmlns="http://www.w3.org/2000/svg" xmlns:xlink="http://www.w3.org/1999/xlink" x="0px" y="0px"
	 viewBox="0 0 496.005 496.005" style="enable-background:new 0 0 496.005 496.005;" xml:space="preserve">
<path style="fill:#FFB000;" d="M496.005,393.602c0,18.4-15.2,30.4-33.6,30.4h-444c-19.2,0-18.4-12-18.4-30.4v-263.2
	c0-18.4,15.2-34.4,33.6-34.4h428.8c18.4,0,33.6,16,33.6,34.4V393.602z"/>
<g>
	<path style="fill:#FF9D00;" d="M462.405,96.002c18.4,0,33.6,16,33.6,34.4v263.2c0,18.4-15.2,30.4-33.6,30.4h-444
		c-19.2,0-18.4-13.6-18.4-32"/>
	<polygon style="fill:#FF9D00;" points="496.005,313.602 496.005,475.202 308.005,350.402 	"/>
</g>
<path style="fill:#FF6D00;" d="M496.005,475.202c0-1.6,0-2.4,0-4v-2.4c0-23.2-19.2-44.8-42.4-44.8h-34.4L496.005,475.202z"/>
<g>
	<path style="fill:#FF9100;" d="M364.805,216.002h-233.6c-7.2,0-12.8-4.8-12.8-12s5.6-12,12.8-12h233.6c7.2,0,12.8,4.8,12.8,12
		S372.005,216.002,364.805,216.002z"/>
	<path style="fill:#FF9100;" d="M364.805,288.002h-233.6c-7.2,0-12.8-4.8-12.8-12s5.6-12,12.8-12h233.6c7.2,0,12.8,4.8,12.8,12
		C377.605,283.202,372.005,288.002,364.805,288.002z"/>
	<path style="fill:#FF9100;" d="M257.605,360.002h-126.4c-7.2,0-12.8-4.8-12.8-12s5.6-12,12.8-12h126.4c7.2,0,12.8,4.8,12.8,12
		S264.805,360.002,257.605,360.002z"/>
</g>
<g>
	<path style="fill:#F8FFFF;" d="M364.805,208.002h-233.6c-7.2,0-12.8-8.8-12.8-16s5.6-16,12.8-16h233.6c7.2,0,12.8,8.8,12.8,16
		S372.005,208.002,364.805,208.002z"/>
	<path style="fill:#F8FFFF;" d="M364.805,280.002h-233.6c-7.2,0-12.8-8.8-12.8-16s5.6-16,12.8-16h233.6c7.2,0,12.8,8.8,12.8,16
		C377.605,271.202,372.005,280.002,364.805,280.002z"/>
	<path style="fill:#F8FFFF;" d="M257.605,352.002h-126.4c-7.2,0-12.8-8.8-12.8-16s5.6-16,12.8-16h126.4c7.2,0,12.8,8.8,12.8,16
		S264.805,352.002,257.605,352.002z"/>
</g>
<path style="opacity:0.3;fill:#9AA5A4;enable-background:new    ;" d="M174.405,103.202c0,45.6-36.8,82.4-82.4,82.4
	s-82.4-36.8-82.4-82.4s36.8-82.4,82.4-82.4C137.605,20.802,174.405,57.602,174.405,103.202z"/>
<path style="fill:#1BCEB8;" d="M164.005,103.202c0,45.6-36.8,82.4-82.4,82.4c-44.8-0.8-81.6-37.6-81.6-82.4
	c0-45.6,36.8-82.4,82.4-82.4C127.205,20.802,164.005,57.602,164.005,103.202z"/>
<path style="fill:#09ADB5;" d="M82.405,20.802c45.6,0,82.4,36.8,82.4,82.4s-36.8,82.4-82.4,82.4"/>
<path style="fill:#0DBFBA;" d="M24.005,44.802c32-32,84-32,116,0s32,84,0,116"/>
<g>
	<path style="fill:#FFFFFF;" d="M82.405,140.002c-2.4,0-4-1.6-4-4v-72c0-2.4,1.6-4,4-4s4,1.6,4,4v72
		C86.405,137.602,84.005,140.002,82.405,140.002z"/>
	<path style="fill:#FFFFFF;" d="M117.605,104.002h-72c-2.4,0-4-1.6-4-4s1.6-4,4-4h72c2.4,0,4,1.6,4,4
		S120.005,104.002,117.605,104.002z"/>
</g>
<g>
</g>
<g>
</g>
<g>
</g>
<g>
</g>
<g>
</g>
<g>
</g>
<g>
</g>
<g>
</g>
<g>
</g>
<g>
</g>
<g>
</g>
<g>
</g>
<g>
</g>
<g>
</g>
<g>
</g>
</svg>
