<?xml version="1.0" encoding="iso-8859-1"?>
<!-- Generator: Adobe Illustrator 19.0.0, SVG Export Plug-In . SVG Version: 6.00 Build 0)  -->
<svg version="1.1" id="Layer_1" xmlns="http://www.w3.org/2000/svg" xmlns:xlink="http://www.w3.org/1999/xlink" x="0px" y="0px"
	 viewBox="0 0 497.8 497.8" style="enable-background:new 0 0 497.8 497.8;" xml:space="preserve">
<path style="fill:#4C4C8C;" d="M0.2,162.1C0.2,77.3,69,7.7,153.8,7.7c70.4,0,129.6,47.2,148,112c9.6-2.4,19.2-4,29.6-4
	c60.8,0,108.8,48,108.8,108v8c32,4.8,57.6,34.4,57.6,68.8c0,37.6-30.4,69.6-68,69.6H153c-26.4,0-51.2,0-73.6,0H66.6
	c-12.8,0-24.8-4.8-35.2-11.2C16.2,351.7,5,338.9,1,318.1c-1.6-6.4-0.8-19.2-0.8-25.6c0-0.8,0,0.8,0,0s0,0.8,0,0V162.1z"/>
<path style="fill:#6965A8;" d="M152.2,369.3c0,0-50.4,0-72,0H66.6c-12.8,0-24.8-4.8-35.2-11.2C16.2,350.9,5,338.1,1,317.3
	c-1.6-5.6-0.8-18.4-0.8-24.8c0-0.8,0,0.8,0,0s0,0.8,0,0V162.1C0.2,77.3,69,7.7,153.8,7.7c70.4,0,128.8,48,147.2,112.8"/>
<path style="fill:#FFC114;" d="M330.6,377.3c0,0-2.4-3.2-2.4-5.6v-77.6c0-31.2-22.4-60.8-54.4-60.8h-51.2
	c-31.2,0-54.4,28.8-54.4,60.8v77.6c0,2.4-2.4,5.6-2.4,5.6h-30.4l112.8,112.8L361,377.3H330.6z"/>
<path style="fill:#FCA12A;" d="M330.6,377.3c0,0-2.4-3.2-2.4-5.6v-77.6c0-31.2-22.4-60.8-54.4-60.8h-25.6v256.8h0.8l112-112.8H330.6
	z"/>
<g>
	<rect x="174.6" y="290.9" style="fill:#FFDB43;" width="148" height="14.4"/>
	<rect x="174.6" y="338.9" style="fill:#FFDB43;" width="148" height="14.4"/>
	<rect x="174.6" y="386.9" style="fill:#FFDB43;" width="148" height="14.4"/>
</g>
<g>
</g>
<g>
</g>
<g>
</g>
<g>
</g>
<g>
</g>
<g>
</g>
<g>
</g>
<g>
</g>
<g>
</g>
<g>
</g>
<g>
</g>
<g>
</g>
<g>
</g>
<g>
</g>
<g>
</g>
</svg>
