<?xml version="1.0" encoding="iso-8859-1"?>
<!-- Generator: Adobe Illustrator 19.0.0, SVG Export Plug-In . SVG Version: 6.00 Build 0)  -->
<svg version="1.1" id="Layer_1" xmlns="http://www.w3.org/2000/svg" xmlns:xlink="http://www.w3.org/1999/xlink" x="0px" y="0px"
	 viewBox="0 0 504 504" style="enable-background:new 0 0 504 504;" xml:space="preserve">
<path style="fill:#3AC2F2;" d="M468.4,132.8C468.4,60,407.6,0,334.8,0c-60.8,0-112,40.8-128,96c-8-2.4-19.2-4-28-4
	c-51.2,0-95.2,41.6-95.2,92.8v6.4c-24,4-48,28.8-48,57.6c0,32,28,58.4,60,58.4h236.8c22.4,0,44,0,62.4,0H406
	c11.2,0,20.8-3.2,29.6-8.8C448.4,292,458,281.6,462,264c1.6-4.8,2.4-10.4,2.4-16c0-0.8,0.8-1.6,0.8-2.4c0-0.8,1.6-1.6,1.6-2.4V132.8
	H468.4z"/>
<path style="fill:#009CC6;" d="M334,308c22.4,0,44,0,62.4,0h11.2c11.2,0,23.2-0.8,32-6.4c12.8-6.4,23.2-15.2,26.4-32.8
	c1.6-4.8,1.6-19.2,1.6-24.8c0-0.8,0,0.8,0,0s0,0,0,0V132.8C468.4,60,407.6,0,334.8,0c-60.8,0-112,40.8-128,96"/>
<path style="fill:#FFC114;" d="M252.4,302.4L252.4,302.4c-52,0-101.6,20-138.4,57.6l22.4,22.4c31.2-31.2,72-48,116-48
	s84.8,16.8,116,48l22.4-22.4C354,323.2,304.4,302.4,252.4,302.4z"/>
<g>
	<path style="fill:#0AA06E;" d="M252.4,361.6c-35.2,0-68,13.6-92.8,38.4l22.4,22.4c19.2-18.4,44-28.8,70.4-28.8s51.2,10.4,70.4,28.8
		l22.4-22.4C320.4,375.2,287.6,361.6,252.4,361.6L252.4,361.6z"/>
	<path style="fill:#0AA06E;" d="M203.6,440.8l22.4,22.4c7.2-7.2,16-11.2,26.4-11.2c9.6,0,19.2,4,26.4,11.2l22.4-22.4
		c-12.8-12.8-30.4-20-48.8-20C234,420.8,216.4,428,203.6,440.8z"/>
	<circle style="fill:#0AA06E;" cx="252.4" cy="488.8" r="15.2"/>
</g>
<path style="fill:#FCA12A;" d="M252.4,334.4c44,0,84.8,16.8,116,48l22.4-22.4c-36.8-36.8-86.4-57.6-138.4-57.6l0,0"/>
<path style="fill:#FFC114;" d="M252.4,361.6c-35.2,0-68,13.6-92.8,38.4l22.4,22.4c19.2-18.4,44-28.8,70.4-28.8s51.2,10.4,70.4,28.8
	l22.4-22.4C320.4,375.2,287.6,361.6,252.4,361.6L252.4,361.6z"/>
<path style="fill:#FCA12A;" d="M252.4,393.6c26.4,0,51.2,10.4,70.4,28.8l22.4-22.4c-24.8-24.8-57.6-38.4-92.8-38.4l0,0"/>
<path style="fill:#FFC114;" d="M203.6,440.8l22.4,22.4c7.2-7.2,16-11.2,26.4-11.2c9.6,0,19.2,4,26.4,11.2l22.4-22.4
	c-12.8-12.8-30.4-20-48.8-20C234,420.8,216.4,428,203.6,440.8z"/>
<path style="fill:#FCA12A;" d="M252.4,452.8c9.6,0,19.2,4,26.4,11.2l22.4-22.4c-12.8-12.8-30.4-20-48.8-20"/>
<circle style="fill:#3AC2F2;" cx="252.4" cy="488.8" r="15.2"/>
<path style="fill:#009CC6;" d="M252.4,504c8,0,15.2-6.4,15.2-15.2c0-8-6.4-15.2-15.2-15.2"/>
<g>
</g>
<g>
</g>
<g>
</g>
<g>
</g>
<g>
</g>
<g>
</g>
<g>
</g>
<g>
</g>
<g>
</g>
<g>
</g>
<g>
</g>
<g>
</g>
<g>
</g>
<g>
</g>
<g>
</g>
</svg>
