<?xml version="1.0" encoding="iso-8859-1"?>
<!-- Generator: Adobe Illustrator 19.0.0, SVG Export Plug-In . SVG Version: 6.00 Build 0)  -->
<svg version="1.1" id="Layer_1" xmlns="http://www.w3.org/2000/svg" xmlns:xlink="http://www.w3.org/1999/xlink" x="0px" y="0px"
	 viewBox="0 0 496.8 496.8" style="enable-background:new 0 0 496.8 496.8;" xml:space="preserve">
<path style="fill:#FFDE55;" d="M83.6,0C70,0,56.4,9.6,56.4,23.2v450.4c0,13.6,13.6,23.2,27.2,23.2h329.6c13.6,0,27.2-9.6,27.2-23.2
	V98.4L344.4,0H83.6z"/>
<polygon style="fill:#FFC114;" points="440.4,178.4 440.4,98.4 389.2,45.6 348.4,87.2 "/>
<path style="fill:#FFF3C0;" d="M344.4,71.2V0L438,96h-73.6C351.6,96,344.4,84.8,344.4,71.2z"/>
<g>
	<path style="fill:#FFC114;" d="M240.4,162.4c0,8.8-8.8,13.6-18.4,13.6h-88.8c-8.8,0-12.8-4.8-12.8-13.6V73.6
		c0-9.6,4-17.6,12.8-17.6H222c8.8,0,18.4,8,18.4,17.6V162.4z"/>
	<path style="fill:#FFC114;" d="M384.4,256c0,4.8-3.2,8-8,8h-248c-4.8,0-8-3.2-8-8l0,0c0-4.8,3.2-8,8-8h248
		C381.2,248,384.4,251.2,384.4,256L384.4,256z"/>
	<path style="fill:#FFC114;" d="M384.4,336c0,4.8-3.2,8-8,8h-248c-4.8,0-8-3.2-8-8l0,0c0-4.8,3.2-8,8-8h248
		C381.2,328,384.4,331.2,384.4,336L384.4,336z"/>
	<path style="fill:#FFC114;" d="M384.4,416c0,4.8-3.2,8-8,8h-248c-4.8,0-8-3.2-8-8l0,0c0-4.8,3.2-8,8-8h248
		C381.2,408,384.4,411.2,384.4,416L384.4,416z"/>
</g>
<g>
</g>
<g>
</g>
<g>
</g>
<g>
</g>
<g>
</g>
<g>
</g>
<g>
</g>
<g>
</g>
<g>
</g>
<g>
</g>
<g>
</g>
<g>
</g>
<g>
</g>
<g>
</g>
<g>
</g>
</svg>
