<?xml version="1.0" encoding="iso-8859-1"?>
<!-- Generator: Adobe Illustrator 19.0.0, SVG Export Plug-In . SVG Version: 6.00 Build 0)  -->
<svg version="1.1" id="Layer_1" xmlns="http://www.w3.org/2000/svg" xmlns:xlink="http://www.w3.org/1999/xlink" x="0px" y="0px"
	 viewBox="0 0 499.2 499.2" style="enable-background:new 0 0 499.2 499.2;" xml:space="preserve">
<polygon style="fill:#E5E5E5;" points="498.4,91.2 499.2,89.6 248,306.4 0,91.2 0,91.2 0,91.2 0,411.2 496,411.2 496,91.2 "/>
<polyline style="fill:#EFEFEF;" points="496,91.2 498.4,91.2 499.2,89.6 248,306.4 0,91.2 0,91.2 0,91.2 0,411.2 "/>
<polyline style="fill:#D6D6D6;" points="496,411.2 496,91.2 496,91.2 496,91.2 248,306.4 0,91.2 0,91.2 0,91.2 "/>
<polygon style="fill:#BFBFBF;" points="496,88 248,345.6 0,88 248,88 "/>
<g>
	<polygon style="fill:#F15249;" points="496,88 248,305.6 0,88 248,88 	"/>
	<rect y="387.2" style="fill:#F15249;" width="496" height="24"/>
</g>
<g>
	<rect x="248" y="387.2" style="fill:#C93131;" width="248" height="24"/>
	<polygon style="fill:#C93131;" points="248,88 248,91.2 248,304.8 248.8,305.6 496,88 	"/>
</g>
<circle style="fill:#FFDE55;" cx="68.8" cy="270.4" r="52.8"/>
<path style="fill:#FFC114;" d="M113.6,241.6c16,24.8,8,57.6-16,73.6c-24.8,16-57.6,8-73.6-16"/>
<circle style="fill:#6D6D6D;" cx="68.8" cy="270.4" r="25.6"/>
<g>
</g>
<g>
</g>
<g>
</g>
<g>
</g>
<g>
</g>
<g>
</g>
<g>
</g>
<g>
</g>
<g>
</g>
<g>
</g>
<g>
</g>
<g>
</g>
<g>
</g>
<g>
</g>
<g>
</g>
</svg>
