<?xml version="1.0" encoding="iso-8859-1"?>
<!-- Generator: Adobe Illustrator 19.0.0, SVG Export Plug-In . SVG Version: 6.00 Build 0)  -->
<svg version="1.1" id="Layer_1" xmlns="http://www.w3.org/2000/svg" xmlns:xlink="http://www.w3.org/1999/xlink" x="0px" y="0px"
	 viewBox="0 0 496 496" style="enable-background:new 0 0 496 496;" xml:space="preserve">
<polygon style="fill:#D6D6D6;" points="217.6,15.6 284,82 181.6,82 "/>
<path style="fill:#C67217;" d="M465.6,50H224V26c0-6.4-8-16-14.4-16h-172C30.4,10,24,18.8,24,26v26.4C8,54.8,0,66.8,0,82v295.2
	C0,394,13.6,410,30.4,410h435.2c16.8,0,30.4-16,30.4-32.8V82C496,65.2,482.4,50,465.6,50z"/>
<path style="fill:#A8550B;" d="M464.8,406.8c16.8,0,31.2-12.8,31.2-29.6V82c0-16.8-13.6-32-30.4-32H224V26c0-6.4-8-16-14.4-16h-172
	C30.4,10,24,18.8,24,26v24"/>
<rect x="40" y="82" style="fill:#FFFFFF;" width="416" height="288"/>
<polyline style="fill:#D6D6D6;" points="40,82 456,82 456,370 "/>
<path style="fill:#FCA12A;" d="M496,379.6c0,16.8-13.6,30.4-30.4,30.4H30.4C13.6,410,0,396.4,0,379.6V168.4
	C0,151.6,13.6,138,30.4,138h435.2c16.8,0,30.4,13.6,30.4,30.4V379.6z"/>
<g>
	<path style="fill:#ED9224;" d="M32,138h433.6c16.8,0,30.4,12,30.4,28.8V382c0,13.6-13.6,28.8-30.4,28.8"/>
	<polygon style="fill:#ED9224;" points="188.8,301.2 80,410 349.6,410 	"/>
</g>
<circle style="fill:#3CC676;" cx="108.8" cy="377.2" r="108.8"/>
<path style="fill:#0AA06E;" d="M132.8,312.4l-88,88l83.2,84c44.8-8,80-43.2,88-88L132.8,312.4z"/>
<polygon style="fill:#FFFFFF;" points="184,354 136,354 136,306 88,306 88,354 40,354 40,402 88,402 88,450 136,450 136,402 
	184,402 "/>
<g>
</g>
<g>
</g>
<g>
</g>
<g>
</g>
<g>
</g>
<g>
</g>
<g>
</g>
<g>
</g>
<g>
</g>
<g>
</g>
<g>
</g>
<g>
</g>
<g>
</g>
<g>
</g>
<g>
</g>
</svg>
