<?xml version="1.0" encoding="iso-8859-1"?>
<!-- Generator: Adobe Illustrator 19.0.0, SVG Export Plug-In . SVG Version: 6.00 Build 0)  -->
<svg version="1.1" id="Layer_1" xmlns="http://www.w3.org/2000/svg" xmlns:xlink="http://www.w3.org/1999/xlink" x="0px" y="0px"
	 viewBox="0 0 496 496" style="enable-background:new 0 0 496 496;" xml:space="preserve">
<path style="fill:#4C5254;" d="M97.6,40c8,88,72,206.4,150.4,206.4S390.4,128,398.4,40H97.6z"/>
<path style="fill:#FFC114;" d="M117.6,120c26.4,72,76,126.4,130.4,126.4S350.4,192,377.6,120H117.6z"/>
<path style="fill:#2F423F;" d="M248,40v208v-1.6c78.4,0,142.4-118.4,150.4-206.4H248z"/>
<path style="fill:#FCA12A;" d="M248,120v128c0,0,0-0.8,0.8-0.8c54.4,0,104-55.2,130.4-127.2H248z"/>
<rect x="64" style="fill:#F15249;" width="368" height="40"/>
<rect x="248" style="fill:#C93131;" width="184" height="40"/>
<path style="fill:#FFC114;" d="M398.4,456c-8-88-72-211.2-150.4-211.2S105.6,368,97.6,456H398.4z"/>
<path style="fill:#4C5254;" d="M379.2,376c-26.4-72-76-131.2-131.2-131.2S145.6,304,118.4,376H379.2z"/>
<path style="fill:#FCA12A;" d="M248,456V248c0,0,0-1.6-0.8-1.6C169.6,246.4,105.6,368,97.6,456H248z"/>
<path style="fill:#2F423F;" d="M248,376V248v-3.2c-54.4,0-104.8,59.2-131.2,131.2H248z"/>
<rect x="64" y="456" style="fill:#3CC676;" width="368" height="40"/>
<rect x="64" y="456" style="fill:#0AA06E;" width="184" height="40"/>
<circle style="fill:#FFC114;" cx="248" cy="274.4" r="16"/>
<path style="fill:#FCA12A;" d="M259.2,263.2c6.4,6.4,6.4,16,0,22.4s-16,6.4-22.4,0"/>
<circle style="fill:#FFC114;" cx="248" cy="312.8" r="16"/>
<path style="fill:#FCA12A;" d="M259.2,301.6c6.4,6.4,6.4,16,0,22.4s-16,6.4-22.4,0"/>
<circle style="fill:#FFC114;" cx="248" cy="351.2" r="16"/>
<path style="fill:#FCA12A;" d="M259.2,340c6.4,6.4,6.4,16,0,22.4s-16,6.4-22.4,0"/>
<g>
</g>
<g>
</g>
<g>
</g>
<g>
</g>
<g>
</g>
<g>
</g>
<g>
</g>
<g>
</g>
<g>
</g>
<g>
</g>
<g>
</g>
<g>
</g>
<g>
</g>
<g>
</g>
<g>
</g>
</svg>
