<?xml version="1.0" encoding="iso-8859-1"?>
<!-- Generator: Adobe Illustrator 19.0.0, SVG Export Plug-In . SVG Version: 6.00 Build 0)  -->
<svg version="1.1" id="Layer_1" xmlns="http://www.w3.org/2000/svg" xmlns:xlink="http://www.w3.org/1999/xlink" x="0px" y="0px"
	 viewBox="0 0 496 496" style="enable-background:new 0 0 496 496;" xml:space="preserve">
<path style="fill:#A8A8A8;" d="M310.4,356.8c0-3.2,0-8.8,0-8.8H185.6c0,0,0,4.8,0,8.8c0,39.2-9.6,72-25.6,94.4v8.8h176v-8.8
	C320,428.8,310.4,395.2,310.4,356.8z"/>
<path style="fill:#929392;" d="M336,460v-8.8c-16-22.4-25.6-56-25.6-94.4c0-3.2,0-8.8,0-8.8H185.6c0,0,0.8,4.8,0.8,8.8"/>
<path style="fill:#D6D6D6;" d="M496,326.4c0,23.2-20,45.6-43.2,45.6H43.2C20,372,0,350.4,0,326.4v-276C0,27.2,20,12,43.2,12h409.6
	C476,12,496,27.2,496,50.4V326.4z"/>
<path style="fill:#BCBCBC;" d="M40,12h412.8C476,12,496,27.2,496,50.4v276c0,23.2-20,45.6-43.2,45.6H240"/>
<path style="fill:#4C5254;" d="M452.8,12H43.2C20,12,0,27.2,0,50.4V292h496V50.4C496,27.2,476,12,452.8,12z"/>
<path style="fill:#2F423F;" d="M496,292V50.4c0-23.2-20-38.4-43.2-38.4H43.2C20,12,0.8,28.8,0.8,52"/>
<circle style="fill:#4C5254;" cx="248" cy="329.6" r="16"/>
<path style="fill:#2F423F;" d="M259.2,318.4c6.4,6.4,6.4,16,0,22.4s-16,6.4-22.4,0"/>
<path style="fill:#D6D6D6;" d="M376,468.8c0,8.8-7.2,15.2-15.2,15.2H127.2c-8.8,0-15.2-7.2-15.2-15.2v-1.6c0-8.8,7.2-15.2,15.2-15.2
	h233.6c8.8,0,15.2,7.2,15.2,15.2V468.8z"/>
<path style="fill:#C6C6C6;" d="M128,452h237.6c8.8,0,15.2,5.6,15.2,13.6l0,0c0,8.8-8,16-16.8,16"/>
<g>
</g>
<g>
</g>
<g>
</g>
<g>
</g>
<g>
</g>
<g>
</g>
<g>
</g>
<g>
</g>
<g>
</g>
<g>
</g>
<g>
</g>
<g>
</g>
<g>
</g>
<g>
</g>
<g>
</g>
</svg>
