<?xml version="1.0" encoding="iso-8859-1"?>
<!-- Generator: Adobe Illustrator 19.0.0, SVG Export Plug-In . SVG Version: 6.00 Build 0)  -->
<svg version="1.1" id="Layer_1" xmlns="http://www.w3.org/2000/svg" xmlns:xlink="http://www.w3.org/1999/xlink" x="0px" y="0px"
	 viewBox="0 0 503.2 503.2" style="enable-background:new 0 0 503.2 503.2;" xml:space="preserve">
<path style="fill:#3CC676;" d="M484.4,194.4c-168,0-307.2,136.8-308,304.8h308V194.4z"/>
<path style="fill:#0AA06E;" d="M484.4,278.4c-120,0-223.2,100.8-223.2,220.8h223.2V278.4z"/>
<path style="fill:#007C56;" d="M484.4,361.6c-80,0-139.2,65.6-139.2,137.6h139.2V361.6z"/>
<path style="fill:#2F423F;" d="M18.8,49.6c0,27.2,22.4,49.6,49.6,49.6h142.4c6.4,0,12-5.6,12-12s-5.6-12-12-12H68.4
	C54,75.2,42.8,64,42.8,49.6S54.8,24,68.4,24c6.4,0,12-5.6,12-12s-4.8-12-12-12C41.2,0,18.8,22.4,18.8,49.6z"/>
<rect x="364.4" y="123.2" style="fill:#4C5254;" width="24" height="64"/>
<path style="fill:#2F423F;" d="M364.4,123.2h24c-1.6-24-20.8-48-47.2-48H198.8c-6.4,0-12,5.6-12,12s5.6,12,12,12h142.4
	C354,99.2,362.8,107.2,364.4,123.2z"/>
<path style="fill:#D6D6D6;" d="M484.4,296c0,92-38.4,206.4-105.6,206.4S272.4,388,272.4,296S310.8,161.6,378,161.6
	S484.4,204.8,484.4,296z"/>
<path style="fill:#BCBCBC;" d="M378,162.4c67.2,0,105.6,42.4,105.6,134.4S445.2,503.2,378,503.2"/>
<circle style="fill:#5E6664;" cx="378" cy="236.8" r="20.8"/>
<path style="fill:#A8A8A8;" d="M366,254.4l111.2,111.2c3.2-17.6,5.6-35.2,6.4-52.8l-88-88L366,254.4z"/>
<path style="fill:#2F423F;" d="M393.2,222.4c8,8,8,21.6,0,29.6c-8,8-21.6,8-29.6,0"/>
<g>
</g>
<g>
</g>
<g>
</g>
<g>
</g>
<g>
</g>
<g>
</g>
<g>
</g>
<g>
</g>
<g>
</g>
<g>
</g>
<g>
</g>
<g>
</g>
<g>
</g>
<g>
</g>
<g>
</g>
</svg>
