<?xml version="1.0" encoding="iso-8859-1"?>
<!-- Generator: Adobe Illustrator 19.0.0, SVG Export Plug-In . SVG Version: 6.00 Build 0)  -->
<svg version="1.1" id="Layer_1" xmlns="http://www.w3.org/2000/svg" xmlns:xlink="http://www.w3.org/1999/xlink" x="0px" y="0px"
	 viewBox="0 0 505.6 505.6" style="enable-background:new 0 0 505.6 505.6;" xml:space="preserve">
<g>
	<polygon style="fill:#EFEFEF;" points="500.8,0 4.8,108 4.8,505.6 500.8,397.6 	"/>
	<polygon style="fill:#EFEFEF;" points="500.8,0 4.8,108 4.8,505.6 500.8,397.6 	"/>
</g>
<g>
	<polygon style="fill:#D1D1D3;" points="156.8,216.8 132.8,232 132.8,412.8 76.8,412.8 140,478.4 367.2,428 	"/>
	<polygon style="fill:#D1D1D3;" points="500.8,292 375.2,167.2 356.8,184 356.8,356.8 285.6,356.8 360,429.6 500.8,397.6 	"/>
</g>
<polygon style="fill:#6965A8;" points="372.8,131.2 132.8,184.8 132.8,117.6 372.8,64.8 "/>
<polyline style="fill:#4C4C8C;" points="372.8,64.8 372.8,131.2 132.8,184.8 "/>
<polygon style="fill:#6965A8;" points="300.8,212 204.8,233.6 204.8,206.4 300.8,184.8 "/>
<g>
	<polygon style="fill:#4C4C8C;" points="132.8,219.2 132.8,388.8 156.8,388.8 156.8,213.6 	"/>
	<polygon style="fill:#4C4C8C;" points="348.8,340.8 372.8,342.4 372.8,165.6 348.8,171.2 	"/>
</g>
<g>
	<polygon style="fill:#6965A8;" points="104,440.8 68.8,405.6 132.8,341.6 156.8,388.8 	"/>
	<polygon style="fill:#6965A8;" points="321.6,393.6 286.4,358.4 350.4,294.4 372.8,342.4 	"/>
</g>
<g>
</g>
<g>
</g>
<g>
</g>
<g>
</g>
<g>
</g>
<g>
</g>
<g>
</g>
<g>
</g>
<g>
</g>
<g>
</g>
<g>
</g>
<g>
</g>
<g>
</g>
<g>
</g>
<g>
</g>
</svg>
