<?xml version="1.0" encoding="iso-8859-1"?>
<!-- Generator: Adobe Illustrator 19.0.0, SVG Export Plug-In . SVG Version: 6.00 Build 0)  -->
<svg version="1.1" id="Layer_1" xmlns="http://www.w3.org/2000/svg" xmlns:xlink="http://www.w3.org/1999/xlink" x="0px" y="0px"
	 viewBox="0 0 499.2 499.2" style="enable-background:new 0 0 499.2 499.2;" xml:space="preserve">
<path style="fill:#F15249;" d="M336.8,333.6c0-141.6-32-283.2-88-333.6l0,0l0,0l0,0l0,0c-56,49.6-88.8,192.8-88.8,334.4
	s32.8,160.8,88.8,162.4l0,0l0,0l0,0l0,0C304.8,495.2,336.8,475.2,336.8,333.6z"/>
<g>
	<path style="fill:#AD0E0E;" d="M248.8,499.2v-2.4l0,0l0,0l0,0c56-2.4,88.8-22.4,88.8-164s-32.8-282.4-88.8-332l0,0l0,0l0,0v2.4"/>
	
		<rect x="216.14" y="229.228" transform="matrix(-0.7071 0.7071 -0.7071 -0.7071 647.8413 292.5112)" style="fill:#AD0E0E;" width="94.399" height="102.399"/>
</g>
<circle style="fill:#3AC2F2;" cx="248.8" cy="236" r="69.6"/>
<path style="fill:#009CC6;" d="M248.8,166.4c38.4,0,69.6,31.2,69.6,69.6s-31.2,69.6-69.6,69.6"/>
<path style="fill:#D1D1D3;" d="M287.2,274.4c-21.6,21.6-56,21.6-77.6,0s-21.6-56,0-77.6s56-21.6,77.6,0
	C308.8,218.4,308.8,253.6,287.2,274.4z"/>
<path style="fill:#EFEFEF;" d="M287.2,274.4c-18.4,18.4-49.6,18.4-68,0c-18.4-19.2-18.4-49.6,0-68s49.6-18.4,68,0
	C306.4,225.6,306.4,256,287.2,274.4z"/>
<path style="fill:#D1D1D3;" d="M287.2,197.6c21.6,21.6,21.6,56,0,77.6c-21.6,21.6-56,21.6-77.6,0"/>
<path style="fill:#EFEFEF;" d="M160,335.2c0,27.2,1.6,52,4,68h169.6c2.4-16,4-41.6,4-68c0-4,0-12,0-12H160
	C160,323.2,160,331.2,160,335.2z"/>
<path style="fill:#D1D1D3;" d="M248.8,323.2v80h84.8c0.8-8,0.8-9.6,1.6-14.4c0-0.8,0-1.6,0-1.6c0.8-4.8,0.8-9.6,0.8-15.2l0,0
	c0-4.8,0.8-10.4,0.8-16c0-1.6,0-2.4,0-4c0-5.6,0-11.2,0-16.8c0-4,0-11.2,0-11.2h-88V323.2z"/>
<g>
	<g>
		<g>
			<g>
				<g>
					<rect x="152.8" y="323.2" style="fill:#4C5254;" width="24" height="24"/>
					<polyline style="fill:#2F423F;" points="176.8,323.2 176.8,347.2 160.8,347.2 					"/>
				</g>
				<g>
					<rect x="152.8" y="379.2" style="fill:#4C5254;" width="24" height="24"/>
					<polyline style="fill:#2F423F;" points="176.8,379.2 176.8,403.2 152.8,403.2 					"/>
				</g>
				<g>
					<rect x="176.8" y="347.2" style="fill:#4C5254;" width="32" height="32"/>
					<polyline style="fill:#2F423F;" points="208.8,347.2 208.8,379.2 176.8,379.2 					"/>
				</g>
			</g>
			<g>
				<g>
					<rect x="208.8" y="323.2" style="fill:#4C5254;" width="24" height="24"/>
					<polyline style="fill:#2F423F;" points="232.8,323.2 232.8,347.2 208.8,347.2 					"/>
				</g>
				<g>
					<rect x="208.8" y="379.2" style="fill:#4C5254;" width="24" height="24"/>
					<polyline style="fill:#2F423F;" points="232.8,379.2 232.8,403.2 208.8,403.2 					"/>
				</g>
				<g>
					<rect x="232.8" y="347.2" style="fill:#4C5254;" width="32" height="32"/>
					<polyline style="fill:#2F423F;" points="264.8,347.2 264.8,379.2 232.8,379.2 					"/>
				</g>
			</g>
			<g>
				<g>
					<rect x="264.8" y="323.2" style="fill:#4C5254;" width="24" height="24"/>
					<polyline style="fill:#2F423F;" points="288.8,323.2 288.8,347.2 264.8,347.2 					"/>
				</g>
				<g>
					<rect x="264.8" y="379.2" style="fill:#4C5254;" width="24" height="24"/>
					<polyline style="fill:#2F423F;" points="288.8,379.2 288.8,403.2 264.8,403.2 					"/>
				</g>
				<g>
					<rect x="288.8" y="347.2" style="fill:#4C5254;" width="32" height="32"/>
					<polyline style="fill:#2F423F;" points="320.8,347.2 320.8,379.2 288.8,379.2 					"/>
				</g>
			</g>
			<g>
				<g>
					<rect x="320.8" y="323.2" style="fill:#4C5254;" width="24" height="24"/>
					<polyline style="fill:#2F423F;" points="344.8,323.2 344.8,347.2 320.8,347.2 					"/>
				</g>
				<g>
					<rect x="320.8" y="379.2" style="fill:#4C5254;" width="24" height="24"/>
					<polyline style="fill:#2F423F;" points="344.8,379.2 344.8,403.2 320.8,403.2 					"/>
				</g>
				<g>
					<rect x="344.8" y="347.2" style="fill:#4C5254;" width="24" height="32"/>
					<polyline style="fill:#2F423F;" points="368.8,347.2 368.8,379.2 344.8,379.2 					"/>
				</g>
			</g>
		</g>
	</g>
</g>
<path style="fill:#FFC114;" d="M304.8,491.2c0,5.6-4.8,8-9.6,8h-92.8c-5.6,0-9.6-2.4-9.6-8l0,0c0-5.6,4.8-8,9.6-8h92
	C300,483.2,304.8,485.6,304.8,491.2L304.8,491.2z"/>
<path style="fill:#FCA12A;" d="M295.2,483.2h-46.4v16h46.4c5.6,0,9.6-2.4,9.6-8S300,483.2,295.2,483.2z"/>
<path style="fill:#FFC114;" d="M279.2,127.2c0,3.2-2.4,4-5.6,4h-50.4c-3.2,0-5.6-0.8-5.6-4l0,0c0-3.2,2.4-4,5.6-4h50.4
	C276.8,123.2,279.2,124,279.2,127.2L279.2,127.2z"/>
<path style="fill:#FCA12A;" d="M273.6,123.2h-24.8v8h24.8c3.2,0,5.6-0.8,5.6-4S276.8,123.2,273.6,123.2z"/>
<path style="fill:#FFC114;" d="M279.2,95.2c0,3.2-2.4,4-5.6,4h-50.4c-3.2,0-5.6-0.8-5.6-4l0,0c0-3.2,2.4-4,5.6-4h50.4
	C276.8,91.2,279.2,92,279.2,95.2L279.2,95.2z"/>
<path style="fill:#FCA12A;" d="M273.6,91.2h-24.8v8h24.8c3.2,0,5.6-0.8,5.6-4S276.8,91.2,273.6,91.2z"/>
<polygon style="fill:#FFC114;" points="200.8,483.2 130.4,483.2 165.6,411.2 200.8,411.2 "/>
<polygon style="fill:#FCA12A;" points="200.8,483.2 130.4,483.2 185.6,444.8 200.8,413.6 "/>
<polygon style="fill:#E87E00;" points="296.8,483.2 367.2,483.2 332,411.2 296.8,411.2 "/>
<polygon style="fill:#FCA12A;" points="296.8,483.2 367.2,483.2 312,444.8 296.8,413.6 "/>
<g>
</g>
<g>
</g>
<g>
</g>
<g>
</g>
<g>
</g>
<g>
</g>
<g>
</g>
<g>
</g>
<g>
</g>
<g>
</g>
<g>
</g>
<g>
</g>
<g>
</g>
<g>
</g>
<g>
</g>
</svg>
