<?xml version="1.0" encoding="iso-8859-1"?>
<!-- Generator: Adobe Illustrator 19.0.0, SVG Export Plug-In . SVG Version: 6.00 Build 0)  -->
<svg version="1.1" id="Layer_1" xmlns="http://www.w3.org/2000/svg" xmlns:xlink="http://www.w3.org/1999/xlink" x="0px" y="0px"
	 viewBox="0 0 496 496" style="enable-background:new 0 0 496 496;" xml:space="preserve">
<rect x="224" style="fill:#D6D6D6;" width="48" height="64"/>
<polyline style="fill:#BCBCBC;" points="224,0 272,0 272,64 "/>
<rect x="224" y="432" style="fill:#D6D6D6;" width="48" height="64"/>
<polyline style="fill:#BCBCBC;" points="272,496 224,496 224,432 "/>
<rect x="432" y="224" style="fill:#D6D6D6;" width="64" height="48"/>
<polyline style="fill:#BCBCBC;" points="496,224 496,272 432,272 "/>
<rect y="224" style="fill:#D6D6D6;" width="64" height="48"/>
<polyline style="fill:#BCBCBC;" points="0,272 0,224 64,224 "/>
<rect x="377.633" y="62.42" transform="matrix(-0.7071 -0.7071 0.7071 -0.7071 620.7964 444.3807)" style="fill:#D6D6D6;" width="49.6" height="62.399"/>
<polyline style="fill:#BCBCBC;" points="407.2,53.6 442.4,88.8 397.6,133.6 "/>
<rect x="68.818" y="371.183" transform="matrix(0.7073 0.7069 -0.7069 0.7073 311.8486 51.5955)" style="fill:#D6D6D6;" width="49.6" height="62.399"/>
<polyline style="fill:#BCBCBC;" points="88.8,442.4 53.6,407.2 98.4,362.4 "/>
<rect x="377.533" y="371.116" transform="matrix(0.7073 -0.7069 0.7069 0.7073 -166.6398 402.1665)" style="fill:#D6D6D6;" width="49.6" height="62.399"/>
<polyline style="fill:#BCBCBC;" points="442.4,407.2 407.2,442.4 362.4,397.6 "/>
<rect x="68.795" y="62.424" transform="matrix(-0.7071 0.7071 -0.7071 -0.7071 225.9783 93.6447)" style="fill:#D6D6D6;" width="49.6" height="62.399"/>
<polyline style="fill:#BCBCBC;" points="53.6,88.8 88.8,53.6 133.6,98.4 "/>
<circle style="fill:#E5E5E5;" cx="248" cy="248" r="196.8"/>
<path style="fill:#D6D6D6;" d="M248,51.2c108.8,0,196.8,88,196.8,196.8s-88,196.8-196.8,196.8"/>
<circle style="fill:#4C5254;" cx="248" cy="248" r="107.2"/>
<path style="fill:#2F423F;" d="M323.2,172.8c41.6,41.6,41.6,109.6,0,151.2s-109.6,41.6-151.2,0"/>
<circle style="fill:#E5E5E5;" cx="248" cy="248" r="38.4"/>
<path style="fill:#D6D6D6;" d="M220.8,220.8c15.2-15.2,39.2-15.2,54.4,0s15.2,39.2,0,54.4"/>
<g>
</g>
<g>
</g>
<g>
</g>
<g>
</g>
<g>
</g>
<g>
</g>
<g>
</g>
<g>
</g>
<g>
</g>
<g>
</g>
<g>
</g>
<g>
</g>
<g>
</g>
<g>
</g>
<g>
</g>
</svg>
