<?xml version="1.0" encoding="iso-8859-1"?>
<!-- Generator: Adobe Illustrator 19.0.0, SVG Export Plug-In . SVG Version: 6.00 Build 0)  -->
<svg version="1.1" id="Layer_1" xmlns="http://www.w3.org/2000/svg" xmlns:xlink="http://www.w3.org/1999/xlink" x="0px" y="0px"
	 viewBox="0 0 495.268 495.268" style="enable-background:new 0 0 495.268 495.268;" xml:space="preserve">
<path style="fill:#6965A8;" d="M312,262.834c0,30.4-25.6,56.8-56.8,56.8h-200c-30.4,0-55.2-25.6-55.2-56.8v-200
	c0-30.4,24.8-55.2,55.2-55.2h200c31.2,0,56.8,24.8,56.8,55.2V262.834z"/>
<path style="fill:#40406B;" d="M152,7.634h103.2c31.2,0,56.8,24.8,56.8,55.2v200c8,94.4-120,55.2-150.4,55.2"/>
<path style="fill:#D6D6D6;" d="M268,162.834c0,62.4-50.4,112.8-112.8,112.8s-112.8-50.4-112.8-112.8s50.4-112.8,112.8-112.8
	C217.6,50.834,268,101.234,268,162.834z"/>
<path style="fill:#BCBCBC;" d="M76,83.634c44-44,115.2-44,159.2,0s44,115.2,0,159.2"/>
<g>
	<path style="fill:#40406B;" d="M120,168.434c0,7.2-4,15.2-11.2,15.2H98.4c-7.2,0-10.4-8-10.4-15.2v-10.4c0-7.2,3.2-14.4,10.4-14.4
		h10.4c7.2,0,11.2,7.2,11.2,14.4V168.434z"/>
	<path style="fill:#40406B;" d="M224,168.434c0,7.2-4,15.2-11.2,15.2h-10.4c-7.2,0-10.4-8-10.4-15.2v-10.4c0-7.2,3.2-14.4,10.4-14.4
		h10.4c7.2,0,11.2,7.2,11.2,14.4V168.434z"/>
</g>
<path style="fill:#2F423F;" d="M481.6,455.634H308c-16.8,0-30.4-8-31.2-24h-29.6c0,32,27.2,56,60,56h173.6c8,0,14.4-8,14.4-16
	C496,463.634,489.6,455.634,481.6,455.634z"/>
<path style="fill:#FFDE55;" d="M232,295.634v-94.4c0-7.2-8.8-17.6-16-17.6h-10.4c-7.2,0-13.6,9.6-13.6,17.6v94.4H232z"/>
<g>
	<path style="fill:#FFC114;" d="M336,295.634v-94.4c0-7.2-8.8-17.6-16.8-17.6h-10.4c-7.2,0-13.6,9.6-13.6,17.6v94.4H336z"/>
	<path style="fill:#FFC114;" d="M232,295.634v-94.4c0-7.2-8.8-17.6-16-17.6h-8"/>
	<path style="fill:#FFC114;" d="M336,295.634v-94.4c0-7.2-8.8-17.6-16.8-17.6H312"/>
</g>
<path style="fill:#3CC676;" d="M375.2,319.634H144c0,40,35.2,85.6,76,102.4c-3.2,2.4-5.6,7.2-5.6,12c0,7.2,6.4,14.4,13.6,14.4h70.4
	c7.2,0,13.6-8,13.6-15.2c0-4.8-2.4-7.2-5.6-9.6C346.4,406.034,375.2,359.634,375.2,319.634z"/>
<path style="fill:#0AA06E;" d="M264,447.634h33.6c7.2,0,13.6-8,13.6-15.2c0-4.8-2.4-7.2-5.6-9.6c40.8-16.8,70.4-63.2,70.4-103.2H264
	"/>
<g>
	<path style="fill:#FFDE55;" d="M288,352.434c0,4-3.2,7.2-7.2,7.2H240c-4,0-7.2-3.2-7.2-7.2v-0.8c0-4,3.2-7.2,7.2-7.2h40.8
		c4,0,7.2,3.2,7.2,7.2V352.434z"/>
	<path style="fill:#FFDE55;" d="M292,375.634c0,4-3.2,8-7.2,8h-43.2c-4,0-7.2-4-7.2-8l0,0c0-4,3.2-8,7.2-8h43.2
		C288,367.634,292,371.634,292,375.634L292,375.634z"/>
</g>
<rect x="144" y="295.634" style="fill:#FFC114;" width="232" height="24"/>
<rect x="264" y="295.634" style="fill:#FFDE55;" width="112" height="24"/>
<g>
</g>
<g>
</g>
<g>
</g>
<g>
</g>
<g>
</g>
<g>
</g>
<g>
</g>
<g>
</g>
<g>
</g>
<g>
</g>
<g>
</g>
<g>
</g>
<g>
</g>
<g>
</g>
<g>
</g>
</svg>
