<?xml version="1.0" encoding="iso-8859-1"?>
<!-- Generator: Adobe Illustrator 19.0.0, SVG Export Plug-In . SVG Version: 6.00 Build 0)  -->
<svg version="1.1" id="Layer_1" xmlns="http://www.w3.org/2000/svg" xmlns:xlink="http://www.w3.org/1999/xlink" x="0px" y="0px"
	 viewBox="0 0 496 496" style="enable-background:new 0 0 496 496;" xml:space="preserve">
<path style="fill:#D6D6D6;" d="M101.6,96l53.6,321.6c0,44,35.2,78.4,79.2,78.4H312c44,0,79.2-34.4,79.2-78.4L437.6,96H101.6z"/>
<g>
	<polygon style="fill:#BCBCBC;" points="419.2,181.6 290.4,309.6 108,127.2 236,28 	"/>
	<path style="fill:#BCBCBC;" d="M201.6,288.8l-60,46.4l13.6,81.6c0,44,35.2,79.2,79.2,79.2H312c8,0,15.2-1.6,22.4-3.2l50.4-50.4
		L201.6,288.8z"/>
</g>
<path style="fill:#FFC114;" d="M477.6,68.8c0-33.6-27.2-60.8-60.8-60.8H122.4C88.8,8,61.6,35.2,61.6,68.8c0,28,18.4,51.2,44,58.4
	c20.8,7.2,86.4,12,164,12s143.2-5.6,164-12C459.2,120,477.6,96.8,477.6,68.8z"/>
<path style="fill:#BCBCBC;" d="M272,96v400h40c44,0,79.2-34.4,79.2-78.4L437.6,96H272z"/>
<path style="fill:#FCA12A;" d="M268.8,139.2c77.6,0,144-4.8,164.8-12c25.6-7.2,44-30.4,44-58.4c0-33.6-27.2-60.8-60-60.8H120"/>
<ellipse style="fill:#CC7E00;" cx="269.6" cy="16.8" rx="171.2" ry="16.8"/>
<path style="fill:#A55E00;" d="M269.6,0C364,0,440.8,8,440.8,16.8c0,9.6-76.8,16.8-171.2,16.8"/>
<g>
	<circle style="fill:#A0A0A0;" cx="171.2" cy="184.8" r="17.6"/>
	<circle style="fill:#A0A0A0;" cx="236.8" cy="184.8" r="17.6"/>
	<circle style="fill:#A0A0A0;" cx="303.2" cy="184.8" r="17.6"/>
	<circle style="fill:#A0A0A0;" cx="368.8" cy="184.8" r="17.6"/>
	<circle style="fill:#A0A0A0;" cx="171.2" cy="244.8" r="17.6"/>
	<circle style="fill:#A0A0A0;" cx="236.8" cy="244.8" r="17.6"/>
	<circle style="fill:#A0A0A0;" cx="303.2" cy="244.8" r="17.6"/>
	<circle style="fill:#A0A0A0;" cx="368.8" cy="244.8" r="17.6"/>
	<circle style="fill:#A0A0A0;" cx="236.8" cy="304.8" r="17.6"/>
	<circle style="fill:#A0A0A0;" cx="303.2" cy="304.8" r="17.6"/>
	<circle style="fill:#A0A0A0;" cx="236.8" cy="364.8" r="17.6"/>
	<circle style="fill:#A0A0A0;" cx="303.2" cy="364.8" r="17.6"/>
	<circle style="fill:#A0A0A0;" cx="236.8" cy="424.8" r="17.6"/>
	<circle style="fill:#A0A0A0;" cx="303.2" cy="424.8" r="17.6"/>
</g>
<circle style="fill:#F15249;" cx="129.6" cy="372" r="111.2"/>
<path style="fill:#AD0E0E;" d="M196,348.8L63.2,396l85.6,85.6c45.6-8,81.6-44,89.6-89.6L196,348.8z"/>
<g>
	<polyline style="fill:#FFFFFF;" points="152.8,395.2 195.2,395.2 195.2,348.8 152.8,348.8 	"/>
	<polyline style="fill:#FFFFFF;" points="160,348.8 63.2,348.8 63.2,395.2 160,395.2 	"/>
</g>
<g>
</g>
<g>
</g>
<g>
</g>
<g>
</g>
<g>
</g>
<g>
</g>
<g>
</g>
<g>
</g>
<g>
</g>
<g>
</g>
<g>
</g>
<g>
</g>
<g>
</g>
<g>
</g>
<g>
</g>
</svg>
