<?xml version="1.0" encoding="iso-8859-1"?>
<!-- Generator: Adobe Illustrator 19.0.0, SVG Export Plug-In . SVG Version: 6.00 Build 0)  -->
<svg version="1.1" id="Layer_1" xmlns="http://www.w3.org/2000/svg" xmlns:xlink="http://www.w3.org/1999/xlink" x="0px" y="0px"
	 viewBox="0 0 483.2 483.2" style="enable-background:new 0 0 483.2 483.2;" xml:space="preserve">
<path style="fill:#3CC676;" d="M283.2,435.2h-17.6l-2.4-24h0.8c32,7.2,56-4.8,56-4.8s-30.4,3.2-20-38.4c7.2-27.2,1.6-51.2-3.2-63.2
	c-6.4-27.2-28.8-38.4-55.2-38.4s-48.8,11.2-55.2,38.4c-4.8,12.8-10.4,36-3.2,63.2c10.4,40.8-20,37.6-20,37.6s24,11.2,56,4.8l0.8,0.8
	l-2.4,24h-16.8c-40-16-92,16-100.8,48h284C375.2,451.2,323.2,419.2,283.2,435.2z"/>
<path style="fill:#0AA06E;" d="M241.6,483.2H384c-8.8-32-60.8-64-100.8-48h-17.6l-2.4-24h0.8c32,7.2,56-4.8,56-4.8
	s-30.4,3.2-20-38.4c7.2-27.2,1.6-50.4-3.2-63.2c-6.4-26.4-28.8-37.6-55.2-37.6l0,0V483.2z"/>
<path id="SVGCleanerId_0" style="fill:#3AC2F2;" d="M304.8,187.2h-36l-2.4-20c21.6-17.6,36-54.4,36-85.6c0-38.4-22.4-56-51.2-59.2
	l0,0l0,0c-3.2,0-7.2-0.8-9.6-0.8c-3.2,0-6.4,0-8.8,0.8c-15.2-3.2-26.4-12-31.2-22.4c-3.2,4-5.6,8.8-6.4,14.4c-0.8,7.2,0.8,14.4,4,20
	C187.2,44,180,59.2,180,81.6c0,31.2,15.2,68.8,36,85.6l-1.6,20h-36c-43.2,0-79.2,32-88.8,72h304C384,219.2,348,187.2,304.8,187.2z"
	/>
<g>
	<path id="SVGCleanerId_0_1_" style="fill:#3AC2F2;" d="M304.8,187.2h-36l-2.4-20c21.6-17.6,36-54.4,36-85.6
		c0-38.4-22.4-56-51.2-59.2l0,0l0,0c-3.2,0-7.2-0.8-9.6-0.8c-3.2,0-6.4,0-8.8,0.8c-15.2-3.2-26.4-12-31.2-22.4
		c-3.2,4-5.6,8.8-6.4,14.4c-0.8,7.2,0.8,14.4,4,20C187.2,44,180,59.2,180,81.6c0,31.2,15.2,68.8,36,85.6l-1.6,20h-36
		c-43.2,0-79.2,32-88.8,72h304C384,219.2,348,187.2,304.8,187.2z"/>
</g>
<path style="fill:#00B2E2;" d="M241.6,259.2h152c-9.6-40-45.6-72-88.8-72h-36l-2.4-20c21.6-17.6,36-54.4,36-85.6
	c0-38.4-22.4-56-51.2-59.2l0,0l0,0c-3.2,0-7.2-0.8-9.6-0.8l0,0V259.2z"/>
<g>
</g>
<g>
</g>
<g>
</g>
<g>
</g>
<g>
</g>
<g>
</g>
<g>
</g>
<g>
</g>
<g>
</g>
<g>
</g>
<g>
</g>
<g>
</g>
<g>
</g>
<g>
</g>
<g>
</g>
</svg>
