<?xml version="1.0" encoding="iso-8859-1"?>
<!-- Generator: Adobe Illustrator 19.0.0, SVG Export Plug-In . SVG Version: 6.00 Build 0)  -->
<svg version="1.1" id="Layer_1" xmlns="http://www.w3.org/2000/svg" xmlns:xlink="http://www.w3.org/1999/xlink" x="0px" y="0px"
	 viewBox="0 0 475.8 475.8" style="enable-background:new 0 0 475.8 475.8;" xml:space="preserve">
<rect x="171.504" y="252.656" transform="matrix(-0.7074 -0.7068 0.7068 -0.7074 114.0726 624.5325)" style="fill:#FCA12A;" width="29.6" height="71.999"/>
<rect x="184.753" y="258.611" transform="matrix(-0.7071 -0.7071 0.7071 -0.7071 119.363 638.6632)" style="fill:#EA860F;" width="14.4" height="71.999"/>
<circle style="fill:#F15249;" cx="315.4" cy="160.2" r="160"/>
<path style="fill:#AD0E0E;" d="M429,46.6c62.4,62.4,62.4,163.2,0,225.6s-163.2,62.4-225.6,0"/>
<circle style="fill:#D1D1D3;" cx="315.4" cy="160.2" r="124.8"/>
<circle style="fill:#EFEFEF;" cx="315.4" cy="174.6" r="110.4"/>
<path style="fill:#D1D1D3;" d="M441,160.2C441,229,385,285,316.2,285s-124.8-56-124.8-124.8"/>
<path style="fill:#0AA06E;" d="M51.4,466.6c-12,12-30.4,12-42.4,0l0,0c-12-12-12-30.4,0-42.4L124.2,309c12-12,30.4-12,42.4,0l0,0
	c12,12,12,30.4,0,42.4L51.4,466.6z"/>
<path style="fill:#007C56;" d="M166.6,309L166.6,309c12,12,12,30.4,0,42.4L51.4,466.6c-12,12-30.4,12-42.4,0l0,0"/>
<g>
	<polygon style="fill:#D1D1D3;" points="147.4,62.6 105,62.6 105,20.2 58.6,20.2 58.6,62.6 15.4,62.6 15.4,109 58.6,109 58.6,152.2 
		105,152.2 105,109 147.4,109 	"/>
	<polygon style="fill:#D1D1D3;" points="425,409 417,409 328.2,409 328.2,455.4 417,455.4 425,455.4 460.2,455.4 460.2,409 	"/>
</g>
<g>
</g>
<g>
</g>
<g>
</g>
<g>
</g>
<g>
</g>
<g>
</g>
<g>
</g>
<g>
</g>
<g>
</g>
<g>
</g>
<g>
</g>
<g>
</g>
<g>
</g>
<g>
</g>
<g>
</g>
</svg>
